<?xml version="1.0" encoding="iso-8859-1"?>
<!-- Uploaded to: SVG Repo, www.svgrepo.com, Generator: SVG Repo Mixer Tools -->
<svg fill="#000000" height="800px" width="800px" version="1.1" id="Layer_1" xmlns="http://www.w3.org/2000/svg" xmlns:xlink="http://www.w3.org/1999/xlink" 
	 viewBox="0 0 503.665 503.665" xml:space="preserve">
<g transform="translate(0 -1)">
	<g>
		<g>
			<path d="M475.068,381.251c-10.467-7.462-22.662-11.398-35.009-12.07c-45.098-29.528-75.423-52.258-92.622-69.456l-41.069-41.069
				c3.458-1.066,6.48-1.729,8.335-1.654c0.076,0,0.151-0.025,0.227-0.025c0.101,0.008,0.193,0.059,0.285,0.059
				c0.344,0,0.646-0.151,0.982-0.193c0.487-0.067,0.948-0.143,1.419-0.285c0.52-0.159,1.007-0.352,1.486-0.613
				c0.42-0.218,0.789-0.495,1.158-0.772c0.285-0.218,0.638-0.336,0.898-0.596L493.626,82.101
				c6.471-6.471,10.039-15.083,10.039-24.232c0-9.14-3.567-17.752-10.039-24.215l-22.629-22.637
				c-13.346-13.337-35.068-13.354-48.422,0L250.091,183.51c-0.134,0.134-0.176,0.302-0.294,0.445
				c-0.52,0.588-0.948,1.217-1.276,1.922c-0.143,0.294-0.26,0.571-0.369,0.881c-0.227,0.663-0.353,1.351-0.403,2.073
				c-0.025,0.285-0.084,0.554-0.076,0.839c0,0.101-0.034,0.193-0.025,0.302c0.117,1.855-0.537,4.885-1.603,8.351l-41.052-41.044
				c-30.67-30.686-52.795-60.164-69.615-92.731c-0.873-16.434-7.655-32.021-19.481-43.847C101.552,6.35,81.735-0.634,61.481,1.406
				C58.644,1.7,56.16,3.404,54.859,5.938c-1.293,2.535-1.217,5.548,0.21,8.016L78.99,55.393l-0.042,0.084
				C73.551,66.413,62.262,72.935,50.016,72.18L26.565,31.732c-1.452-2.526-4.113-4.104-7.025-4.197
				c-2.946-0.025-5.649,1.351-7.252,3.777c-19.934,30.3-12.238,70.631,17.526,91.849c10.483,7.47,22.704,11.365,35.068,12.028
				c32.541,16.812,61.986,38.92,92.638,69.565l35.697,35.706l-13.085,13.195c-3.248,3.273-3.24,8.57,0.025,11.843l11.784,11.784
				L51.082,417.973l35.613,35.605l140.867-140.682l11.793,11.793c1.57,1.578,3.71,2.459,5.934,2.459h0.017
				c2.233-0.008,4.365-0.898,5.943-2.484l13.035-13.136l35.672,35.672c5.078,5.078,10.693,11.44,16.77,18.843l18.843-18.843
				c3.273-3.282,8.586-3.282,11.868,0c3.273,3.282,3.273,8.586,0,11.868l-20.245,20.245c3.257,4.264,6.614,8.771,10.122,13.623
				l21.991-21.999c3.282-3.273,8.595-3.273,11.868,0c3.282,3.282,3.282,8.595,0,11.868l-24.005,24.014
				c6.983,10.013,14.403,21.009,22.335,33.121c0.898,16.409,7.672,31.962,19.481,43.772c12.691,12.682,29.662,19.657,47.415,19.657
				c2.325,0,4.667-0.126,7-0.361c2.837-0.302,5.321-2.006,6.622-4.532c1.293-2.535,1.217-5.557-0.21-8.024l-23.921-41.43
				c5.431-10.987,16.762-17.576,29.075-16.787l23.351,40.44c1.452,2.526,4.113,4.113,7.025,4.197c2.77-0.05,5.649-1.351,7.252-3.777
				C512.528,442.792,504.831,402.453,475.068,381.251z M118.708,68.881c-0.025,2.014-0.185,4.004-0.445,5.968
				c-0.025,0.227-0.067,0.453-0.101,0.68c-0.235,1.654-0.571,3.282-0.965,4.885c-0.134,0.529-0.277,1.049-0.42,1.57
				c-0.353,1.242-0.764,2.468-1.209,3.676c-0.285,0.764-0.579,1.528-0.898,2.283c-0.395,0.915-0.823,1.813-1.267,2.703
				c-0.453,0.906-0.915,1.813-1.427,2.694c-0.411,0.713-0.865,1.393-1.309,2.082c-0.613,0.948-1.225,1.897-1.905,2.803
				c-0.47,0.63-0.99,1.234-1.486,1.838c-0.722,0.881-1.435,1.763-2.207,2.594c-0.663,0.697-1.385,1.351-2.082,2.014
				c-0.705,0.671-1.385,1.368-2.132,2.006c-1.351,1.15-2.795,2.241-4.289,3.273c-0.159,0.109-0.294,0.235-0.453,0.336
				c-2.031,1.377-4.172,2.56-6.371,3.592c-0.806,0.378-1.662,0.63-2.484,0.957c-1.41,0.571-2.82,1.158-4.272,1.595
				c-1.276,0.369-2.594,0.604-3.903,0.881c-1.041,0.218-2.065,0.495-3.114,0.646c-1.628,0.235-3.29,0.327-4.961,0.403
				c-11.054,0.546-22.285-2.333-31.459-8.872C21.386,96.546,14.134,74.144,20.051,54.016l17.567,30.443
				c1.41,2.434,3.937,4.004,6.732,4.18l4.583,0.302c18.936,1.225,36.646-8.998,45.064-26.02l2.031-4.113
				c1.242-2.518,1.15-5.498-0.252-7.923l-18.65-32.306c10.089,1.754,19.481,6.564,26.901,13.992
				c9.678,9.669,14.873,22.704,14.689,36.268C118.716,68.856,118.708,68.864,118.708,68.881z M245.264,306.86l-11.759-11.759
				l-0.008-0.008l-23.737-23.745l-0.017-0.008l-11.801-11.801l11.826-11.919l37.577,37.561l9.753,9.753L245.264,306.86z
				 M278.813,252.378c-0.193,0.109-0.378,0.201-0.571,0.319c-1.595,0.94-3.08,1.88-4.432,2.82c-0.353,0.243-0.655,0.478-0.99,0.722
				c-1.469,1.074-2.795,2.132-3.802,3.139c-3.307,3.315-5.414,7.361-6.732,11.617c-0.008,0.008-0.008,0.017-0.008,0.025
				c-0.436,1.41-0.789,2.845-1.066,4.289l-31.853-31.853c0.89-0.176,1.771-0.428,2.652-0.663c0.562-0.143,1.125-0.243,1.679-0.42
				c0.185-0.059,0.361-0.151,0.546-0.21c4.046-1.326,7.89-3.357,11.046-6.522c1.024-1.024,2.098-2.367,3.181-3.861
				c0.227-0.302,0.436-0.579,0.655-0.89c0.965-1.385,1.93-2.913,2.896-4.566c0.067-0.101,0.118-0.201,0.176-0.311
				c3.357-5.775,6.589-12.85,8.889-19.641l37.208,37.208C291.563,245.857,284.562,249.055,278.813,252.378z M304.623,188.168
				L447.311,45.48c3.282-3.282,8.595-3.282,11.868,0c3.282,3.273,3.282,8.586,0,11.868L316.491,200.037
				c-1.637,1.637-3.785,2.459-5.934,2.459c-2.149,0-4.289-0.823-5.934-2.459C301.349,196.755,301.349,191.442,304.623,188.168z
				 M484.83,450.388l-17.567-30.443c-1.41-2.434-3.937-4.004-6.74-4.18l-4.465-0.285c-19.036-1.217-36.78,9.023-45.224,26.112
				l-1.981,4.012c-1.242,2.51-1.15,5.481,0.252,7.915l18.65,32.315c-10.089-1.763-19.473-6.58-26.901-13.992
				c-9.644-9.644-14.84-22.62-14.697-36.134c0-0.017,0.017-0.034,0.017-0.05c0.017-2.023,0.176-4.021,0.428-5.985
				c0.025-0.243,0.076-0.487,0.109-0.73c0.235-1.637,0.554-3.257,0.94-4.851c0.143-0.554,0.294-1.116,0.453-1.67
				c0.344-1.209,0.739-2.392,1.167-3.567c0.302-0.814,0.613-1.62,0.948-2.417c0.378-0.865,0.781-1.721,1.2-2.568
				c0.478-0.957,0.965-1.905,1.502-2.829c0.386-0.672,0.806-1.309,1.225-1.956c0.638-0.99,1.276-1.972,1.981-2.921
				c0.445-0.596,0.94-1.167,1.41-1.746c0.739-0.906,1.477-1.813,2.275-2.669c0.655-0.697,1.368-1.343,2.065-2.006
				c0.705-0.672,1.385-1.368,2.132-2.006c1.502-1.276,3.08-2.501,4.751-3.626c2.006-1.351,4.113-2.535,6.278-3.55
				c0.982-0.462,2.023-0.772,3.038-1.167c1.217-0.478,2.409-1.016,3.66-1.385c1.645-0.495,3.349-0.814,5.044-1.141
				c0.646-0.126,1.276-0.319,1.931-0.411c2.359-0.352,4.767-0.554,7.21-0.579c0.159,0,0.311-0.025,0.47-0.025
				c10.223,0,20.463,3.03,28.941,9.073C483.495,407.867,490.747,430.261,484.83,450.388z"/>
			<path d="M8.641,448.74c-1.989,1.368-3.307,3.517-3.601,5.909L0.063,495.24c-0.319,2.585,0.579,5.162,2.434,6.992
				c1.578,1.57,3.702,2.426,5.901,2.426c0.369,0,0.739-0.025,1.108-0.076l41.103-5.489c2.375-0.319,4.507-1.628,5.842-3.618
				l19.54-28.865l-37.955-37.947L8.641,448.74z"/>
		</g>
	</g>
</g>
</svg>